<svg width="58" height="58" viewBox="0 0 58 58" fill="none" xmlns="http://www.w3.org/2000/svg">
<g id="fontisto:wallet" clip-path="url(#clip0_40_637)" filter="url(#filter0_d_40_637)">
<path id="Vector" d="M53.1583 27.9792H28.0875C26.7441 27.8756 25.4139 28.3053 24.385 29.1752C23.356 30.0451 22.711 31.2852 22.5896 32.6271L22.5875 32.6458C22.7107 34.0054 23.3686 35.2604 24.4168 36.1351C25.4649 37.0098 26.8174 37.4325 28.1771 37.3104L28.1583 37.3125H53.1583C53.3157 37.327 53.4743 37.31 53.6251 37.2625C53.7758 37.2149 53.9154 37.1377 54.0359 37.0355C54.1564 36.9332 54.2553 36.8079 54.3268 36.667C54.3982 36.526 54.4408 36.3722 54.4521 36.2146V29.0812C54.4112 28.7764 54.2612 28.4967 54.0298 28.294C53.7984 28.0913 53.5013 27.9795 53.1937 27.9792H53.1562H53.1583ZM28.0875 35.5583C27.4983 35.5583 26.9223 35.3836 26.4323 35.0563C25.9424 34.7289 25.5606 34.2636 25.3351 33.7192C25.1096 33.1749 25.0506 32.5759 25.1656 31.998C25.2805 31.4201 25.5642 30.8892 25.9809 30.4726C26.3975 30.0559 26.9284 29.7722 27.5063 29.6572C28.0842 29.5423 28.6832 29.6013 29.2276 29.8268C29.7719 30.0523 30.2372 30.4341 30.5646 30.924C30.8919 31.4139 31.0666 31.9899 31.0666 32.5792V32.5875C31.0666 34.2292 29.7354 35.5583 28.0958 35.5583H28.0875ZM10.8646 0V13.3417H13.7146V7.64167C14.0021 7.7125 14.3354 7.75833 14.6771 7.77083H14.6854C15.7152 7.76809 16.7021 7.35792 17.4305 6.62991C18.1589 5.90191 18.5696 4.91524 18.5729 3.88542C18.566 3.54719 18.5199 3.21091 18.4354 2.88333L18.4416 2.91458H34.05C33.9748 3.23028 33.9315 3.55273 33.9208 3.87708V3.88542C33.9236 4.91524 34.3337 5.90213 35.0617 6.63052C35.7897 7.35892 36.7764 7.76962 37.8062 7.77292C38.1562 7.76042 38.4916 7.71458 38.8125 7.63542L38.7791 7.64167V13.3417H41.6979V0H10.8646ZM42.925 11.7208H46.5521C46.2803 10.9315 45.8042 10.2284 45.1722 9.68305C44.5401 9.13774 43.7748 8.76977 42.9541 8.61667L42.925 8.6125V11.7208Z" fill="#00FF79"/>
<path id="Vector_2" d="M27.8979 26.425H52.7687V18.848C52.6623 17.724 52.1185 16.6868 51.2545 15.96C50.3906 15.2332 49.2756 14.875 48.15 14.9625H48.1646H8.66458C8.63095 14.9258 8.58496 14.9028 8.53542 14.898C8.26155 14.7693 8.0271 14.5697 7.85639 14.3198C7.68568 14.07 7.58493 13.779 7.56458 13.4771V13.473C7.59775 13.0982 7.74462 12.7426 7.98552 12.4537C8.22642 12.1647 8.54985 11.9563 8.9125 11.8563L8.925 11.8542V8.55212C6.20208 8.68129 4 12.5667 4 17.425V46.1167C4.10748 47.2393 4.65107 48.275 5.51394 49.0011C6.37681 49.7273 7.49011 50.0859 8.61458 50H8.6H48.1C49.2197 50.0826 50.3273 49.7243 51.1863 49.0015C52.0454 48.2786 52.5879 47.2486 52.6979 46.1313L52.7 46.1146V38.5375H27.9667C23.9521 38.5375 20.7125 35.8167 20.7125 32.5146C20.7125 29.148 23.95 26.4271 27.9 26.4271L27.8979 26.425Z" fill="#00FF79"/>
</g>
<defs>
<filter id="filter0_d_40_637" x="0" y="0" width="58" height="58" filterUnits="userSpaceOnUse" color-interpolation-filters="sRGB">
<feFlood flood-opacity="0" result="BackgroundImageFix"/>
<feColorMatrix in="SourceAlpha" type="matrix" values="0 0 0 0 0 0 0 0 0 0 0 0 0 0 0 0 0 0 127 0" result="hardAlpha"/>
<feOffset dy="4"/>
<feGaussianBlur stdDeviation="2"/>
<feComposite in2="hardAlpha" operator="out"/>
<feColorMatrix type="matrix" values="0 0 0 0 0 0 0 0 0 0.498039 0 0 0 0 0.372549 0 0 0 0.25 0"/>
<feBlend mode="normal" in2="BackgroundImageFix" result="effect1_dropShadow_40_637"/>
<feBlend mode="normal" in="SourceGraphic" in2="effect1_dropShadow_40_637" result="shape"/>
</filter>
<clipPath id="clip0_40_637">
<rect width="50" height="50" fill="white" transform="translate(4)"/>
</clipPath>
</defs>
</svg>
